# xmcd CD database file
#
# Track frame offsets:
#	150
#	43167
#	56255
#	108722
#	134280
#	149510
#	168650
#	207420
#
# Disc length: 3115 seconds
#
# Revision: 0
# Processed by: cddbd v1.4PL0 Copyright (c) Steve Scherf et al.
# Submitted via: CDex 1.50
#
DISCID=7c0c2908
DTITLE=Pedro Iturralde - Feeling Sax Ensemble - Memorias
DYEAR=1998
DGENRE=Jazz
TTITLE0=Jazz Suite
TTITLE1=Dixie for Sax
TTITLE2=Memorias (Tríptico)
TTITLE3=Pequeña Czarda
TTITLE4=Old Friends
TTITLE5=Miniatura
TTITLE6=Suite Hellénique
TTITLE7=Three Shades of Blues
EXTD=YEAR: 1998
EXTT0=
EXTT1=
EXTT2=
EXTT3=
EXTT4=
EXTT5=
EXTT6=
EXTT7=
PLAYORDER=
